<?xml version="1.0" standalone="no"?>
<!DOCTYPE svg PUBLIC "-//W3C//DTD SVG 20010904//EN"
 "http://www.w3.org/TR/2001/REC-SVG-20010904/DTD/svg10.dtd">
<svg version="1.0" xmlns="http://www.w3.org/2000/svg"
 width="377.000000pt" height="134.000000pt" viewBox="0 0 377.000000 134.000000"
 preserveAspectRatio="xMidYMid meet">

<g transform="translate(0.000000,134.000000) scale(0.100000,-0.100000)"
fill="#000000" stroke="none">
<path d="M0 1059 l0 -280 75 67 c41 37 75 71 75 74 0 4 19 20 43 36 23 16 48
35 56 42 7 7 26 16 42 19 16 3 29 11 29 18 0 6 17 20 38 31 20 10 39 22 40 27
2 4 10 7 18 7 8 0 14 4 14 10 0 5 11 12 25 16 14 3 25 10 25 14 0 4 9 10 20
13 21 5 27 31 10 42 -5 3 -10 19 -10 36 0 25 4 29 28 29 29 0 60 34 41 46 -6
3 -8 12 -5 20 5 12 -40 14 -279 14 l-285 0 0 -281z m100 -44 c0 -12 -19 -12
-23 0 -4 9 -1 12 9 8 7 -3 14 -7 14 -8z"/>
<path d="M3200 1331 c0 -5 -3 -16 -6 -25 -4 -10 -1 -16 7 -16 19 0 69 -51 69
-71 0 -9 -6 -22 -14 -29 -18 -14 -9 -43 10 -36 8 3 14 1 14 -4 0 -5 16 -16 35
-24 19 -8 38 -22 41 -31 3 -8 14 -15 24 -15 10 0 23 -7 30 -15 7 -8 18 -15 25
-15 7 0 37 -19 68 -42 30 -24 65 -50 77 -58 12 -8 36 -29 54 -46 17 -17 55
-53 84 -79 l52 -48 0 282 0 281 -285 0 c-166 0 -285 -4 -285 -9z"/>
<path d="M1957 1310 c-4 -15 0 -20 13 -20 10 0 21 -6 23 -12 4 -10 6 -10 6 0
1 18 -18 52 -28 52 -5 0 -11 -9 -14 -20z"/>
<path d="M1815 1310 c-3 -5 -1 -10 4 -10 6 0 11 5 11 10 0 6 -2 10 -4 10 -3 0
-8 -4 -11 -10z"/>
<path d="M1811 1261 c-48 -9 -62 -34 -33 -61 27 -25 20 -42 -14 -34 -21 5 -24
3 -24 -19 0 -44 20 -74 56 -85 20 -6 32 -6 28 -1 -3 6 6 7 23 4 l28 -5 -25 12
-25 12 28 4 c28 3 36 25 15 39 -7 4 -20 6 -29 5 -23 -4 -52 73 -33 88 7 7 19
8 25 4 8 -4 9 -3 5 5 -4 6 -2 18 4 26 7 8 11 14 9 14 -2 -1 -19 -4 -38 -8z
m-18 -118 c-7 -2 -19 -2 -25 0 -7 3 -2 5 12 5 14 0 19 -2 13 -5z m9 -40 c-10
-4 -10 -8 0 -21 8 -11 5 -10 -10 3 -22 18 -22 20 -5 26 10 4 20 4 23 1 3 -2
-1 -7 -8 -9z"/>
<path d="M1932 1240 c0 -14 2 -19 5 -12 2 6 2 18 0 25 -3 6 -5 1 -5 -13z"/>
<path d="M1963 1210 c-27 -22 -30 -35 -5 -26 13 5 13 3 -3 -9 -11 -8 -26 -19
-32 -25 -16 -13 -17 -64 -2 -92 12 -23 12 -23 -20 -33 -16 -5 -21 -4 -17 4 4
6 3 11 -2 11 -6 0 -13 -8 -16 -17 -4 -10 -4 -15 -1 -11 9 9 66 -12 60 -22 -7
-11 35 0 57 15 11 7 14 16 8 24 -6 11 -10 9 -19 -8 -17 -30 -28 -26 -23 9 2
17 -2 40 -11 54 -15 23 -13 36 5 36 4 0 8 -7 8 -16 0 -13 5 -12 30 6 38 27 39
48 3 44 l-28 -4 28 12 c21 9 26 17 21 32 -10 33 -17 36 -41 16z m27 -10 c0 -5
-2 -10 -4 -10 -3 0 -8 5 -11 10 -3 6 -1 10 4 10 6 0 11 -4 11 -10z m0 -70 c0
-5 -5 -10 -11 -10 -5 0 -7 5 -4 10 3 6 8 10 11 10 2 0 4 -4 4 -10z"/>
<path d="M1840 1165 c-9 -10 -9 -15 -1 -15 6 0 11 5 11 11 0 5 5 7 12 3 7 -4
8 -3 4 4 -9 15 -11 15 -26 -3z"/>
<path d="M1890 1171 c0 -6 4 -13 10 -16 6 -3 7 1 4 9 -7 18 -14 21 -14 7z"/>
<path d="M2035 1160 c3 -5 8 -10 11 -10 2 0 4 5 4 10 0 6 -5 10 -11 10 -5 0
-7 -4 -4 -10z"/>
<path d="M1404 1152 c-15 -10 -24 -52 -11 -52 6 0 7 -3 4 -6 -4 -4 9 -25 29
-46 21 -23 33 -46 30 -54 -4 -10 -2 -12 6 -8 8 5 9 2 5 -10 -5 -11 -3 -15 5
-10 8 5 9 -11 4 -61 -9 -86 -25 -151 -50 -195 -69 -124 -80 -162 -51 -174 8
-3 15 0 15 7 0 8 4 6 10 -3 13 -20 13 -33 0 -25 -5 3 -10 2 -10 -4 0 -38 169
-126 187 -98 7 11 16 -14 30 -86 5 -24 48 -67 69 -67 4 0 19 -10 32 -22 l24
-23 -8 25 c-15 41 -7 98 19 147 25 49 47 67 47 39 0 -27 50 -118 94 -171 63
-75 73 -95 71 -143 -2 -24 -5 -45 -8 -48 -11 -11 -140 19 -159 38 -26 26 -48
8 -48 -38 0 -19 -4 -34 -10 -34 -5 0 -10 -7 -10 -15 0 -13 42 -15 315 -15
l315 0 6 26 c5 18 1 31 -15 48 -11 12 -21 34 -21 49 0 16 -8 30 -20 37 -17 9
-20 8 -20 -10 0 -20 -11 -27 -69 -45 -26 -8 -26 -14 -2 80 5 22 22 93 36 157
29 125 47 148 38 48 -4 -36 -2 -60 4 -60 15 0 33 47 33 85 0 26 3 33 15 29 8
-4 15 -3 15 1 0 19 -33 133 -46 158 -12 23 -13 38 -5 80 7 33 8 63 2 82 l-9
30 -1 -35 c-1 -19 -6 -51 -12 -70 -6 -19 -12 -44 -13 -55 -2 -11 -7 -18 -12
-15 -5 3 -8 7 -7 10 1 3 4 12 8 21 4 12 -11 32 -54 69 -37 32 -58 57 -54 66 3
8 1 14 -5 14 -6 0 -16 15 -22 34 -6 19 -22 42 -36 50 -23 16 -24 16 -24 -11 0
-16 -3 -39 -6 -53 -6 -21 -4 -23 7 -12 23 21 47 13 64 -22 17 -35 26 -45 83
-93 38 -32 37 -68 -2 -58 -11 2 -6 -2 12 -10 17 -8 32 -22 32 -30 0 -9 6 -12
15 -9 8 4 15 1 15 -5 0 -6 -4 -11 -10 -11 -5 0 -10 -7 -10 -15 0 -9 6 -12 15
-9 26 10 17 -10 -20 -43 -29 -27 -35 -29 -35 -14 0 10 9 21 20 24 23 6 27 27
5 27 -8 0 -15 -4 -15 -10 0 -5 -4 -10 -10 -10 -5 0 -10 9 -10 20 0 22 -21 61
-52 96 -11 12 -20 31 -21 42 0 11 -5 18 -9 16 -5 -3 -6 -10 -3 -15 9 -14 -11
-11 -24 4 -6 8 -8 17 -4 21 4 4 -1 4 -10 0 -10 -3 -17 -3 -16 2 3 20 -2 34
-12 34 -6 0 -8 -9 -4 -22 6 -23 6 -23 -10 -3 -14 16 -15 32 -10 80 10 79 7
159 -5 163 -11 4 -2 82 11 97 12 12 11 46 -1 65 -8 13 -12 12 -27 -4 -16 -18
-16 -19 0 -7 15 12 17 10 17 -15 0 -58 -47 -192 -68 -195 -43 -7 -64 -4 -102
15 -25 12 -44 27 -43 33 1 6 -6 9 -17 6 -19 -5 -25 6 -20 32 1 6 -4 5 -11 -2
-9 -9 -9 -15 0 -26 6 -8 8 -22 5 -31 -4 -10 3 -26 20 -43 21 -20 25 -22 19 -7
-4 10 -14 24 -22 31 -14 11 -13 12 7 13 12 0 22 -4 22 -10 0 -5 6 -10 13 -10
7 0 27 -13 45 -30 18 -16 36 -30 40 -30 4 0 13 -10 21 -21 11 -18 11 -23 -1
-30 -10 -7 -8 -9 6 -9 10 0 24 7 31 17 11 14 13 11 19 -21 4 -20 4 -41 0 -47
-4 -7 1 -9 14 -5 17 6 21 3 19 -13 -2 -25 -23 -35 -34 -17 -5 7 -18 18 -30 25
-19 9 -23 9 -23 -2 0 -7 11 -19 24 -26 28 -15 51 -53 43 -73 -4 -9 -8 -6 -13
10 -3 12 -13 21 -22 20 -8 -2 -17 3 -20 11 -3 9 0 11 9 6 8 -5 11 -4 6 0 -4 5
-24 9 -44 9 -34 1 -36 3 -50 49 -7 26 -16 47 -19 47 -3 0 -3 -8 1 -19 7 -22
-13 -71 -29 -71 -14 0 -45 20 -32 20 6 0 2 6 -9 13 -10 8 -20 30 -22 51 -3 31
0 39 15 43 18 4 18 6 -4 28 -13 13 -24 36 -24 50 0 23 -2 25 -21 14 -12 -6
-24 -20 -26 -30 -8 -30 -20 -23 -49 30 -17 29 -33 47 -41 44 -14 -6 -76 58
-93 96 -35 76 -44 89 -70 104 -32 19 -31 19 -46 9z m240 -253 c25 -42 16 -44
-11 -3 -12 19 -19 34 -15 34 4 0 16 -14 26 -31z m6 -58 c0 -5 3 -16 6 -24 4
-12 0 -14 -15 -10 -24 6 -23 5 -15 27 7 17 24 22 24 7z m-60 -63 c0 -15 -19
-8 -29 11 -14 25 0 37 16 15 7 -10 13 -21 13 -26z m71 -9 c11 -11 18 -23 16
-26 -8 -8 -44 15 -51 32 -8 22 10 19 35 -6z m52 1 c-4 -17 -23 -29 -23 -16 0
2 -3 11 -6 20 -4 11 0 16 14 16 15 0 19 -5 15 -20z m-55 -50 c7 0 12 -4 12
-10 0 -10 -27 -3 -47 13 -7 5 -13 14 -13 20 0 5 8 3 18 -6 10 -10 24 -17 30
-17z m57 10 c-3 -5 -14 -10 -23 -9 -14 0 -13 2 3 9 27 11 27 11 20 0z m328
-58 c-11 -12 -22 -15 -28 -10 -11 10 10 28 33 28 8 0 6 -6 -5 -18z m41 -28 c0
-12 4 -20 10 -18 6 2 21 -5 32 -15 24 -19 23 -71 -2 -71 -16 0 -50 -48 -40
-57 3 -3 6 -1 6 5 0 7 7 12 15 12 8 0 15 5 15 10 0 6 6 10 14 10 7 0 17 10 21
23 l8 22 4 -24 c3 -13 -3 -41 -13 -63 -16 -36 -20 -38 -48 -33 l-31 6 25 -20
c14 -11 33 -21 43 -21 12 0 16 -5 11 -12 -6 -10 -4 -10 7 -1 22 21 31 15 24
-19 -6 -26 -5 -30 9 -25 14 6 15 3 6 -13 -14 -26 -17 -25 -35 10 -13 26 -47
43 -44 23 5 -32 -3 -113 -10 -108 -5 3 -8 17 -5 31 3 14 -2 40 -11 57 -12 24
-13 33 -3 40 9 6 7 7 -5 3 -10 -3 -24 -6 -30 -6 -8 0 -7 -4 2 -9 12 -8 12 -16
0 -55 -7 -25 -19 -46 -26 -46 -7 0 -13 -10 -13 -21 0 -17 5 -20 25 -17 17 4
25 1 25 -9 0 -8 -4 -11 -10 -8 -6 3 -10 -4 -10 -17 l-1 -23 -20 25 c-11 14
-29 35 -40 47 -23 25 -18 45 9 37 9 -3 6 2 -8 10 -30 18 -44 20 -34 5 5 -8 1
-8 -14 0 -12 6 -24 16 -28 22 -4 8 0 8 15 0 27 -15 28 3 1 22 -25 17 -17 22
55 33 44 6 49 10 67 51 22 49 20 90 -6 161 -18 50 -12 74 18 70 14 -2 21 -10
20 -24z m-579 -13 c-8 -17 -19 -33 -25 -36 -5 -3 -1 10 11 29 25 43 36 48 14
7z m415 -38 c5 -6 -37 3 -67 14 -16 6 -16 5 -4 -10 7 -9 16 -15 20 -13 4 3 8
-5 8 -17 2 -19 -1 -18 -26 9 -38 41 -30 55 22 37 23 -8 44 -17 47 -20z m-220
6 c0 -5 18 -18 41 -29 28 -15 52 -39 77 -80 20 -32 44 -61 52 -63 12 -4 12 -5
-2 -6 -9 -1 -27 17 -41 42 -29 47 -62 79 -73 69 -4 -4 -4 -2 0 5 4 7 -2 13
-15 15 -12 2 -33 18 -47 36 -18 23 -20 31 -8 26 9 -3 16 -10 16 -15z m276 -34
c15 -14 33 -24 40 -21 12 5 8 -20 -10 -65 -11 -25 -81 -55 -91 -39 -4 6 4 10
17 11 21 1 21 2 3 7 -17 6 -20 16 -20 64 0 31 3 54 7 52 4 -2 9 0 13 6 9 14
10 13 41 -15z m-471 -53 c-3 -7 -1 -11 4 -8 13 8 42 -40 35 -58 -3 -9 -12 -16
-18 -16 -18 0 -66 24 -66 33 0 4 -7 7 -15 7 -8 0 -15 3 -16 8 0 4 -2 17 -4 28
-3 12 5 32 18 47 l22 25 23 -26 c12 -15 20 -33 17 -40z m123 -62 c18 0 23 -3
16 -10 -16 -16 -61 7 -67 34 -5 20 -5 20 10 -1 9 -14 26 -23 41 -23z m22 -129
c0 -17 -17 -13 -24 5 -10 27 -7 36 9 20 8 -8 15 -19 15 -25z m490 -101 c-6
-10 -10 -29 -11 -42 0 -15 -5 -7 -15 22 -7 25 -14 46 -14 46 0 1 11 -1 25 -4
20 -3 23 -7 15 -22z m32 -152 c-7 -7 -12 -8 -12 -2 0 14 12 26 19 19 2 -3 -1
-11 -7 -17z m46 -14 c-3 -14 -5 -12 -10 9 -3 19 -2 25 4 19 6 -6 8 -18 6 -28z"/>
<path d="M2056 651 c-4 -5 -2 -12 3 -15 5 -4 12 -2 15 3 4 5 2 12 -3 15 -5 4
-12 2 -15 -3z"/>
<path d="M1965 360 c-3 -5 -2 -10 4 -10 5 0 13 5 16 10 3 6 2 10 -4 10 -5 0
-13 -4 -16 -10z"/>
<path d="M1936 572 c-3 -6 -1 -14 5 -17 14 -9 20 -2 10 14 -6 8 -11 9 -15 3z"/>
<path d="M1441 518 c-5 -15 -4 -26 3 -30 13 -9 49 28 41 42 -11 18 -35 11 -44
-12z"/>
<path d="M1636 1126 c-6 -26 6 -70 23 -80 6 -4 4 8 -4 27 -8 19 -11 44 -8 55
3 12 3 22 0 22 -3 0 -8 -11 -11 -24z"/>
<path d="M1875 1140 c3 -5 8 -10 11 -10 2 0 4 5 4 10 0 6 -5 10 -11 10 -5 0
-7 -4 -4 -10z"/>
<path d="M2175 1130 c-3 -5 -1 -10 4 -10 6 0 11 5 11 10 0 6 -2 10 -4 10 -3 0
-8 -4 -11 -10z"/>
<path d="M2221 1120 c-2 -3 -4 -16 -5 -28 -2 -13 -8 -27 -15 -32 -8 -5 -9 -10
-3 -14 16 -10 34 21 29 51 -2 15 -5 26 -6 23z"/>
<path d="M2160 1100 c0 -5 5 -10 11 -10 5 0 7 5 4 10 -3 6 -8 10 -11 10 -2 0
-4 -4 -4 -10z"/>
<path d="M1683 1065 c0 -8 5 -13 10 -12 5 1 12 -4 15 -12 2 -8 0 -11 -5 -8 -5
3 -10 0 -10 -7 0 -8 7 -12 15 -9 8 4 19 -1 24 -10 5 -10 14 -17 21 -17 8 0 9
3 1 8 -6 4 -19 21 -29 39 -21 35 -42 49 -42 28z"/>
<path d="M1855 993 c-11 -3 -24 -9 -29 -13 -5 -5 1 -6 13 -3 12 3 21 1 21 -6
0 -6 10 -10 23 -10 16 1 17 3 5 6 -10 2 -15 10 -11 19 3 8 4 13 2 13 -2 -1
-13 -3 -24 -6z"/>
<path d="M1948 969 c-23 -13 -23 -25 0 -31 13 -4 18 1 20 18 2 27 3 27 -20 13z"/>
<path d="M1366 958 c3 -4 0 -8 -5 -8 -6 0 -11 -20 -11 -44 0 -31 5 -46 16 -50
22 -8 21 -10 29 56 7 53 6 57 -13 55 -11 0 -18 -5 -16 -9z"/>
<path d="M2156 845 c4 -8 8 -15 10 -15 2 0 4 7 4 15 0 8 -4 15 -10 15 -5 0 -7
-7 -4 -15z"/>
<path d="M1818 825 c-3 -13 -2 -22 2 -20 5 3 10 -2 14 -10 3 -8 10 -15 16 -15
6 0 4 10 -5 23 -8 13 -13 26 -9 29 3 3 1 9 -4 12 -5 3 -12 -5 -14 -19z"/>
<path d="M2473 823 c9 -11 17 -22 17 -25 0 -9 -35 -5 -42 6 -4 6 -6 1 -5 -11
1 -18 4 -20 20 -11 17 9 18 7 12 -14 -5 -16 -4 -20 3 -13 6 6 14 22 17 37 5
21 2 29 -17 39 -22 12 -23 11 -5 -8z"/>
<path d="M2157 804 c3 -7 9 -14 14 -14 14 0 10 17 -5 23 -10 4 -13 1 -9 -9z"/>
<path d="M2040 770 c0 -11 4 -20 8 -20 4 0 8 9 8 20 0 11 -4 20 -8 20 -4 0 -8
-9 -8 -20z"/>
<path d="M2441 733 c13 -15 11 -16 -13 -10 -15 4 -29 3 -32 -2 -8 -12 4 -42
14 -36 4 2 15 -4 25 -15 25 -28 32 -25 40 16 5 28 2 39 -12 50 -25 19 -38 17
-22 -3z"/>
<path d="M1906 695 c-3 -9 0 -15 9 -15 9 0 12 6 9 15 -4 8 -7 15 -9 15 -2 0
-5 -7 -9 -15z"/>
<path d="M2166 694 c-9 -23 -2 -28 13 -10 7 8 8 17 3 20 -6 3 -13 -1 -16 -10z"/>
<path d="M2190 671 c0 -5 7 -11 15 -15 8 -3 15 -1 15 3 0 5 -7 11 -15 15 -8 3
-15 1 -15 -3z"/>
<path d="M1199 607 c-16 -13 -20 -86 -6 -142 4 -16 4 -23 1 -15 -4 8 -15 26
-25 39 -15 19 -19 20 -19 7 0 -27 29 -76 45 -76 22 0 26 31 10 89 -12 47 -12
58 1 82 16 32 16 34 -7 16z"/>
<path d="M0 280 l0 -280 278 0 278 0 11 29 c10 28 9 31 -16 39 -14 6 -34 16
-44 24 -18 13 -18 15 0 53 14 29 15 39 5 43 -7 2 -19 10 -26 18 -8 8 -21 14
-29 14 -7 0 -36 14 -63 32 -212 137 -254 167 -254 184 0 5 -16 20 -35 33 -20
13 -49 39 -65 57 -16 19 -32 34 -35 34 -3 0 -5 -126 -5 -280z"/>
<path d="M3753 547 c-6 -7 -26 -23 -44 -37 -18 -14 -54 -46 -80 -72 -26 -27
-52 -48 -58 -48 -6 0 -11 -7 -11 -15 0 -8 -9 -15 -19 -15 -11 0 -21 -3 -23 -8
-6 -14 -127 -92 -143 -92 -8 0 -15 -4 -15 -10 0 -5 -7 -10 -15 -10 -8 0 -15
-4 -15 -10 0 -5 -11 -10 -25 -10 -16 0 -25 -6 -25 -15 0 -8 -7 -15 -15 -15
-18 0 -19 -20 -3 -54 9 -22 8 -29 -6 -45 -10 -11 -28 -22 -40 -25 -19 -5 -22
-11 -18 -36 l4 -30 284 0 284 0 0 280 c0 154 -1 280 -2 280 -2 -1 -8 -6 -15
-13z m-48 -257 c-3 -5 -10 -10 -16 -10 -5 0 -9 5 -9 10 0 6 7 10 16 10 8 0 12
-4 9 -10z"/>
<path d="M1470 210 c0 -5 5 -10 11 -10 5 0 7 5 4 10 -3 6 -8 10 -11 10 -2 0
-4 -4 -4 -10z"/>
<path d="M1513 203 c9 -15 -19 -24 -49 -17 -13 3 -24 4 -24 0 0 -12 42 -27 59
-21 23 7 34 32 19 41 -6 4 -8 3 -5 -3z"/>
</g>
</svg>
